<svg width="86" height="86" viewBox="0 0 86 86" fill="none" xmlns="http://www.w3.org/2000/svg">
<path d="M43 0L43.0083 42.9577L59.4555 3.27317L43.0239 42.9643L73.4055 12.5944L43.0357 42.9761L82.7268 26.5445L43.0423 42.9917L86 43L43.0423 43.0083L82.7268 59.4555L43.0357 43.0239L73.4055 73.4055L43.0239 43.0357L59.4555 82.7268L43.0083 43.0423L43 86L42.9917 43.0423L26.5445 82.7268L42.9761 43.0357L12.5944 73.4055L42.9643 43.0239L3.27317 59.4555L42.9577 43.0083L0 43L42.9577 42.9917L3.27317 26.5445L42.9643 42.9761L12.5944 12.5944L42.9761 42.9643L26.5445 3.27317L42.9917 42.9577L43 0Z" fill="#B8B8FF" stroke="#B8B8FF" stroke-width="4"/>
</svg>
