<svg width="158" height="31" viewBox="0 0 158 31" fill="none" xmlns="http://www.w3.org/2000/svg">
<path d="M0.368 0.0999985H5.936V22.5H0.368V0.0999985ZM8.368 22.5H3.952V17.7H8.176C9.02933 17.7 9.85067 17.5933 10.64 17.38C11.4507 17.1667 12.1547 16.8147 12.752 16.324C13.3707 15.8333 13.8613 15.1827 14.224 14.372C14.5867 13.54 14.768 12.516 14.768 11.3C14.768 10.084 14.5867 9.07067 14.224 8.26C13.8613 7.428 13.3707 6.76667 12.752 6.276C12.1547 5.78533 11.4507 5.43333 10.64 5.22C9.85067 5.00667 9.02933 4.9 8.176 4.9H3.952V0.0999985H8.368C10.8213 0.0999985 12.944 0.558666 14.736 1.476C16.528 2.39333 17.9147 3.684 18.896 5.348C19.8773 7.012 20.368 8.996 20.368 11.3C20.368 13.5827 19.8773 15.5667 18.896 17.252C17.9147 18.916 16.528 20.2067 14.736 21.124C12.944 22.0413 10.8213 22.5 8.368 22.5ZM22.4928 15.14C22.4928 13.5827 22.8554 12.228 23.5807 11.076C24.3061 9.924 25.3088 9.028 26.5888 8.388C27.8688 7.748 29.3088 7.428 30.9088 7.428C32.5088 7.428 33.9381 7.748 35.1968 8.388C36.4768 9.028 37.4794 9.924 38.2048 11.076C38.9514 12.228 39.3248 13.5827 39.3248 15.14C39.3248 16.676 38.9514 18.02 38.2048 19.172C37.4794 20.324 36.4768 21.22 35.1968 21.86C33.9381 22.5 32.5088 22.82 30.9088 22.82C29.3088 22.82 27.8688 22.5 26.5888 21.86C25.3088 21.22 24.3061 20.324 23.5807 19.172C22.8554 18.02 22.4928 16.676 22.4928 15.14ZM27.4528 15.14C27.4528 15.908 27.6128 16.5693 27.9328 17.124C28.2528 17.6573 28.6688 18.0733 29.1808 18.372C29.6928 18.6707 30.2688 18.82 30.9088 18.82C31.5274 18.82 32.0928 18.6707 32.6048 18.372C33.1381 18.0733 33.5541 17.6573 33.8528 17.124C34.1728 16.5693 34.3328 15.908 34.3328 15.14C34.3328 14.372 34.1728 13.7107 33.8528 13.156C33.5541 12.6013 33.1381 12.1747 32.6048 11.876C32.0928 11.5773 31.5274 11.428 30.9088 11.428C30.2688 11.428 29.6928 11.5773 29.1808 11.876C28.6688 12.1747 28.2528 12.6013 27.9328 13.156C27.6128 13.7107 27.4528 14.372 27.4528 15.14ZM40.5038 7.78H50.3598V11.78H40.5038V7.78ZM43.0958 2.66H47.7358V22.5H43.0958V2.66ZM65.3723 0.0999985H70.8763L67.0363 22.5H61.5643L65.3723 0.0999985ZM69.5323 22.5H65.0203L65.8523 17.7H69.8523C71.0896 17.7 72.2416 17.4653 73.3083 16.996C74.3749 16.5053 75.2709 15.7907 75.9963 14.852C76.7429 13.892 77.2336 12.708 77.4683 11.3C77.6176 10.276 77.5963 9.36933 77.4043 8.58C77.2336 7.79067 76.9243 7.11867 76.4763 6.564C76.0283 6.00933 75.4416 5.59333 74.7163 5.316C74.0123 5.03867 73.2123 4.9 72.3163 4.9H67.9963L68.8603 0.0999985H73.0203C74.7483 0.0999985 76.2736 0.377332 77.5963 0.931999C78.9403 1.48667 80.0496 2.26533 80.9243 3.268C81.8203 4.24933 82.4389 5.43333 82.7803 6.82C83.1429 8.18533 83.2069 9.67867 82.9723 11.3C82.7163 12.9853 82.2043 14.5107 81.4363 15.876C80.6683 17.2413 79.6869 18.4147 78.4923 19.396C77.3189 20.3773 75.9749 21.1453 74.4603 21.7C72.9456 22.2333 71.3029 22.5 69.5323 22.5ZM97.2103 7.78H101.978L99.4503 22.5H94.7143L97.2103 7.78ZM84.2503 15.108C84.4423 13.6573 84.9223 12.356 85.6903 11.204C86.4583 10.0307 87.4076 9.11333 88.5383 8.452C89.6903 7.79067 90.9276 7.46 92.2503 7.46C93.2316 7.46 94.0636 7.67333 94.7463 8.1C95.4503 8.50533 96.0049 9.07067 96.4103 9.796C96.8369 10.5213 97.1143 11.3427 97.2423 12.26C97.3916 13.1773 97.4023 14.1373 97.2743 15.14C97.1463 16.1853 96.8689 17.1773 96.4423 18.116C96.0369 19.0333 95.5143 19.844 94.8743 20.548C94.2343 21.252 93.4876 21.8067 92.6343 22.212C91.8023 22.596 90.8956 22.788 89.9143 22.788C88.6129 22.788 87.5036 22.4467 86.5863 21.764C85.6903 21.06 85.0289 20.132 84.6023 18.98C84.1969 17.8067 84.0796 16.516 84.2503 15.108ZM89.2423 15.14C89.1569 15.78 89.1889 16.388 89.3383 16.964C89.5089 17.54 89.8076 18.0093 90.2343 18.372C90.6823 18.7133 91.2263 18.884 91.8663 18.884C92.3356 18.9053 92.7943 18.82 93.2423 18.628C93.6903 18.436 94.0956 18.1693 94.4583 17.828C94.8423 17.4653 95.1623 17.0493 95.4183 16.58C95.6743 16.1107 95.8449 15.62 95.9303 15.108C95.9943 14.6173 95.9836 14.1587 95.8983 13.732C95.8129 13.284 95.6529 12.8893 95.4183 12.548C95.2049 12.1853 94.9276 11.908 94.5863 11.716C94.2663 11.5027 93.8823 11.3853 93.4343 11.364C92.7729 11.3427 92.1329 11.5027 91.5143 11.844C90.9169 12.1853 90.4156 12.6547 90.0103 13.252C89.6049 13.828 89.3489 14.4573 89.2423 15.14ZM102.223 23.524L106.767 23.556C106.789 24.1107 106.895 24.58 107.087 24.964C107.279 25.3693 107.578 25.6787 107.983 25.892C108.389 26.1267 108.89 26.244 109.487 26.244C110.234 26.244 110.906 26.0733 111.503 25.732C112.122 25.3907 112.634 24.9107 113.039 24.292C113.445 23.6733 113.701 22.9587 113.807 22.148L116.303 7.78H120.911L118.447 22.18C118.191 23.8653 117.647 25.2947 116.815 26.468C116.005 27.6627 114.959 28.5693 113.679 29.188C112.421 29.8067 110.991 30.116 109.391 30.116C107.77 30.116 106.426 29.8493 105.359 29.316C104.293 28.7827 103.493 28.0147 102.959 27.012C102.447 26.0307 102.202 24.868 102.223 23.524ZM103.407 14.916C103.621 13.4653 104.101 12.1747 104.847 11.044C105.615 9.91333 106.565 9.03867 107.695 8.42C108.847 7.78 110.074 7.46 111.375 7.46C112.357 7.46 113.189 7.66267 113.871 8.068C114.575 8.47333 115.141 9.01733 115.567 9.7C115.994 10.3827 116.271 11.172 116.399 12.068C116.549 12.964 116.559 13.924 116.431 14.948C116.303 15.9933 116.026 16.9747 115.599 17.892C115.194 18.788 114.671 19.5773 114.031 20.26C113.413 20.9427 112.677 21.476 111.823 21.86C110.991 22.2227 110.095 22.404 109.135 22.404C107.834 22.404 106.725 22.0733 105.807 21.412C104.89 20.7507 104.218 19.8547 103.791 18.724C103.365 17.5933 103.237 16.324 103.407 14.916ZM108.367 14.948C108.282 15.6093 108.325 16.2067 108.495 16.74C108.687 17.2733 108.997 17.7 109.423 18.02C109.871 18.3187 110.426 18.4787 111.087 18.5C111.535 18.5213 111.973 18.4467 112.399 18.276C112.847 18.084 113.253 17.828 113.615 17.508C113.999 17.188 114.319 16.804 114.575 16.356C114.831 15.908 115.002 15.428 115.087 14.916C115.151 14.404 115.141 13.9453 115.055 13.54C114.97 13.1133 114.81 12.74 114.575 12.42C114.362 12.0787 114.074 11.8227 113.711 11.652C113.37 11.46 112.986 11.364 112.559 11.364C111.855 11.3427 111.205 11.492 110.607 11.812C110.031 12.132 109.541 12.5693 109.135 13.124C108.751 13.6573 108.495 14.2653 108.367 14.948ZM129.769 22.82C128.275 22.82 126.974 22.5533 125.865 22.02C124.777 21.4653 123.923 20.6867 123.305 19.684C122.707 18.6813 122.409 17.4867 122.409 16.1C122.409 14.884 122.633 13.7533 123.081 12.708C123.529 11.6627 124.158 10.756 124.969 9.988C125.801 9.19867 126.782 8.58 127.913 8.132C129.043 7.684 130.291 7.46 131.657 7.46C133.15 7.46 134.398 7.72667 135.401 8.26C136.425 8.772 137.193 9.51867 137.705 10.5C138.238 11.46 138.505 12.6227 138.505 13.988C138.505 14.3293 138.473 14.7027 138.409 15.108C138.345 15.5133 138.259 15.8653 138.153 16.164H124.841V13.476H134.313L133.193 14.948C133.321 14.7347 133.427 14.5107 133.513 14.276C133.598 14.02 133.641 13.796 133.641 13.604C133.641 12.9853 133.545 12.4627 133.353 12.036C133.182 11.6093 132.915 11.2787 132.553 11.044C132.211 10.8093 131.763 10.692 131.209 10.692C130.633 10.692 130.11 10.8093 129.641 11.044C129.193 11.2573 128.798 11.5667 128.457 11.972C128.137 12.3773 127.87 12.8787 127.657 13.476C127.465 14.052 127.315 14.7027 127.209 15.428C127.102 16.196 127.134 16.8787 127.305 17.476C127.497 18.0733 127.817 18.532 128.265 18.852C128.734 19.172 129.31 19.332 129.993 19.332C130.803 19.332 131.507 19.1613 132.105 18.82C132.702 18.4787 133.214 18.0093 133.641 17.412L137.801 18.468C137.033 19.876 135.966 20.9533 134.601 21.7C133.257 22.4467 131.646 22.82 129.769 22.82ZM146.941 7.78L144.413 22.5H139.709L142.237 7.78H146.941ZM150.397 12.74C150.163 12.5267 149.907 12.3453 149.629 12.196C149.373 12.0253 149.064 11.94 148.701 11.94C148.168 11.9187 147.688 12.068 147.261 12.388C146.835 12.6867 146.483 13.092 146.205 13.604C145.928 14.0947 145.747 14.628 145.661 15.204L144.925 13.508C145.117 12.484 145.491 11.5133 146.045 10.596C146.621 9.65733 147.293 8.9 148.061 8.324C148.851 7.72667 149.672 7.428 150.525 7.428C151.059 7.428 151.528 7.54533 151.933 7.78C152.36 8.01467 152.723 8.324 153.021 8.708L150.397 12.74Z" fill="white"/>
<path d="M151.381 20.324C151.381 19.5133 151.669 18.82 152.245 18.244C152.821 17.668 153.536 17.38 154.389 17.38C155.285 17.38 156.011 17.668 156.565 18.244C157.12 18.82 157.397 19.5133 157.397 20.324C157.397 21.1347 157.12 21.828 156.565 22.404C156.011 22.98 155.285 23.268 154.389 23.268C153.536 23.268 152.821 22.98 152.245 22.404C151.669 21.828 151.381 21.1347 151.381 20.324Z" fill="#09080C"/>
</svg>
